<?xml version="1.0" encoding="UTF-8"?>
<svg id="Layer_1" xmlns="http://www.w3.org/2000/svg" version="1.1" viewBox="0 0 1920 582.19">
  <!-- Generator: Adobe Illustrator 29.6.1, SVG Export Plug-In . SVG Version: 2.1.1 Build 9)  -->
  <defs>
    <style>
      .st0 {
        fill: #b3b3b3;
      }

      .st0, .st1, .st2 {
        display: none;
      }

      .st3 {
        stroke: #fff;
        stroke-miterlimit: 10;
        stroke-width: 5px;
      }

      .st3, .st4 {
        fill: #fff;
      }

      .st1, .st5 {
        isolation: isolate;
      }

      .st5 {
        font-family: PPEditorialNew-Ultralight, 'PP Editorial New';
        font-size: 491.01px;
        font-weight: 100;
      }
    </style>
  </defs>
  <path class="st0" d="M1263.19,509.53c-41.34,10.98-83.26,19.68-125.55,26.02-9.18,1.38-19.78,3.32-28.45-.45-22.73,33.5-58.53,48.38-99.15,50.61-6.13.32-12.39.36-18.73.15-16.08-.55-32.64-2.86-49.32-6.58-34.84-7.74-69.9-21.6-100.95-38.51-19.2-10.43-36.86-22.01-51.91-34.1-8.78-6.91-16.61-13.99-23.44-21.07-39.59-41.24-69.09-97.25-61.36-153.89,7.68-56.6,63.68-107.53,119.33-94.52,31.59,7.35,55.83,31.95,84.48,47.21-15.03-24.65-14.01-74.95-14.63-94.85-1.51-48.55,5.37-97.44,20.54-143.61,4.69-14.36,11.8-27.56,21.05-38.68,3.17-3.83,6.54-7.39,10.2-10.65,15.5-13.94,35.31-22.59,58.5-22.74,18.61-.12,34.37,5.23,46.97,14.45,3.85,2.77,7.42,5.92,10.65,9.4,16.7,17.76,25.3,43.62,24.39,70.99-.34,10.03-1.45,20.15-3.22,30.27,10.49-6.91,21.82-12.11,33.53-15.24,4.79-1.31,9.61-2.26,14.49-2.81,20.69-2.42,41.86,1.95,60.87,15.22,15.27,10.65,25.04,24.12,29.99,38.93,1.56,4.49,2.64,9.11,3.28,13.83,3.37,24.13-4.54,50.21-21.09,72.02-10.56,13.92-23.1,26.65-37.1,38.18-3.11,2.57-6.3,5.09-9.59,7.53-33.53,25.3-73.71,44.02-112.76,55.58,4.78,1.84,9.47,3.88,14.07,6.19,7.42,3.79,14.51,8.29,21.05,13.38,7.19,5.67,13.79,12,19.75,18.93,22.53,26.36,35.53,61.09,34.48,95.73,9.32,1.75,18.64,4.8,26.29,6.69,30.32,7.43,60.63,14.88,90.96,22.33,2.92.72,5.82,1.43,8.74,2.15,15.87,3.9,24.6,16.34,3.66,21.91h-.02Z"/>
  <rect class="st2" x="-10.02" y="-9.58" width="1938.34" height="605.12"/>
  <g class="st2">
    <path class="st4" d="M613.76,480.49c-9.95,0-18.83-1.25-26.64-3.73-7.82-2.49-14.74-5.14-20.78-7.99-6.04-2.84-11.1-4.79-15.18-5.86-4.09-1.07-7.11-.44-9.06,1.87-1.96,2.31-2.93,7.72-2.93,16.25h-7.46l-13.32-84.71h7.46c7.81,22.73,19.98,39.96,36.49,51.68,16.52,11.72,33.65,17.58,51.41,17.58s32.85-4.7,44.22-14.12c11.36-9.41,17.05-21.93,17.05-37.56,0-13.14-3.73-23.71-11.19-31.7s-17.05-14.65-28.77-19.98c-11.72-5.33-24.07-10.39-37.03-15.18-12.97-4.79-25.31-10.21-37.03-16.25-11.72-6.04-21.31-13.85-28.77-23.44s-11.19-22.02-11.19-37.29c0-14.2,3.46-26.55,10.39-37.03,6.93-10.47,16.42-18.65,28.5-24.51,12.07-5.86,25.57-8.79,40.49-8.79,9.94,0,18.82,1.16,26.64,3.46,7.81,2.31,14.65,4.89,20.51,7.73,5.86,2.85,10.66,4.89,14.38,6.13,3.73,1.25,6.57.72,8.52-1.6,1.95-2.31,2.93-7.54,2.93-15.72h7.46l12.25,78.32h-7.46c-7.46-19.89-18.47-35.43-33.03-46.62-14.57-11.19-31.62-16.78-51.15-16.78-15.63,0-28.59,4.35-38.89,13.05-10.31,8.71-15.45,19.98-15.45,33.83,0,12.08,3.73,21.67,11.19,28.77,7.46,7.11,17.05,13.05,28.77,17.85s24.06,9.42,37.03,13.85c12.96,4.45,25.31,9.86,37.03,16.25,11.72,6.39,21.31,14.74,28.77,25.04,7.46,10.31,11.19,23.8,11.19,40.49,0,14.57-3.55,27.7-10.66,39.43-7.11,11.72-17.14,20.87-30.1,27.44-12.97,6.57-28.5,9.86-46.62,9.86l.03-.02Z"/>
    <path class="st4" d="M941.94,481.02c-6.39,0-12.25-1.51-17.58-4.53s-9.41-7.46-12.25-13.32c-2.85-5.86-4.26-12.52-4.26-19.98v-25.57c-16.34,22.73-31.88,38.98-46.62,48.75-14.74,9.76-30.1,14.65-46.08,14.65s-29.66-3.55-41.02-10.66c-11.37-7.1-19.98-17.22-25.84-30.37-5.86-13.14-8.79-28.59-8.79-46.35v-136.39c0-14.92-2.93-24.15-8.79-27.7s-16.25-3.55-31.17,0v-7.46l61.27-22.38h7.46v189.67c0,21.31,5.59,37.39,16.78,48.22,11.19,10.84,26.01,16.25,44.49,16.25,14.92,0,28.24-4,39.96-11.99,11.72-7.99,24.51-20.15,38.36-36.5v-148.11c0-14.92-2.93-24.15-8.79-27.7s-16.07-3.55-30.63,0v-7.46l61.27-22.38h7.46v241.35c0,6.04,1.51,10.84,4.53,14.38,3.01,3.55,6.83,5.33,11.45,5.33,3.55,0,7.1-1.24,10.66-3.73,3.55-2.48,6.93-6.74,10.12-12.79l6.39,2.66c-3.91,9.24-8.26,16.34-13.05,21.31s-9.42,8.34-13.85,10.12c-4.45,1.77-8.26,2.66-11.46,2.66l-.02.02h0Z"/>
    <path class="st4" d="M1109.22,199.73c12.43,0,21.93,2.4,28.5,7.19s9.86,10.75,9.86,17.85c0,2.85-.72,5.59-2.13,8.26-1.42,2.66-3.2,4.98-5.33,6.93-2.13,1.96-4.98,2.93-8.52,2.93-4.26,0-7.64-.88-10.12-2.66-2.49-1.77-4.79-3.81-6.93-6.13-2.13-2.31-4.53-4.35-7.19-6.13-2.66-1.77-6.66-2.66-11.99-2.66-8.88,0-17.23,3.29-25.04,9.86-7.82,6.58-14.21,15.45-19.18,26.64-4.98,11.19-7.46,24.07-7.46,38.63v131.59c0,8.52,2.13,15.01,6.39,19.45,4.26,4.45,10.56,7.64,18.91,9.59,8.34,1.96,18.38,3.46,30.1,4.53v7.46h-124.14v-7.46c9.59-1.07,17.22-2.84,22.91-5.33,5.68-2.48,9.86-6.04,12.52-10.66,2.66-4.61,4-10.47,4-17.58v-174.75c0-9.94-1.25-17.22-3.73-21.84-2.49-4.61-6.58-7.28-12.25-7.99-5.69-.71-13.5,0-23.44,2.13v-7.46l61.27-22.38h7.46v62.87c3.55-13.49,8.61-24.95,15.18-34.36,6.57-9.41,14.2-16.52,22.91-21.31,8.7-4.79,17.85-7.19,27.44-7.19v-.02h0Z"/>
    <path class="st4" d="M1280.77,199.73c22.73,0,42.36,5.78,58.87,17.31,16.52,11.55,29.39,27.35,38.63,47.42,9.23,20.07,13.85,43.42,13.85,70.06,0,22.03-2.85,41.91-8.52,59.67-5.69,17.76-13.94,33.22-24.77,46.35-10.84,13.14-23.62,23.18-38.36,30.1-14.74,6.93-31.17,10.39-49.28,10.39-16.7,0-32.15-3.46-46.35-10.39-14.21-6.93-25.4-16.07-33.56-27.44l-16.52,37.83h-7.46V145.37c0-9.94-1.25-17.22-3.73-21.84-2.49-4.61-6.58-7.28-12.25-7.99-5.69-.71-13.5,0-23.44,2.13v-7.46l61.27-22.38h7.46v180.08c4.97-20.25,15.09-36.67,30.37-49.28,15.27-12.6,33.21-18.91,53.81-18.91h-.02ZM1277.04,466.11c9.94,0,19.18-1.68,27.7-5.06,8.52-3.37,16.16-8.34,22.91-14.92,6.74-6.57,12.52-14.38,17.32-23.44,4.79-9.06,8.43-19.18,10.92-30.37,2.48-11.19,3.73-23.35,3.73-36.5,0-26.99-3.82-50.7-11.45-71.12-7.64-20.42-18.3-36.5-31.97-48.22-13.68-11.72-29.93-17.58-48.75-17.58-11.37,0-21.94,3.02-31.7,9.06-9.77,6.04-17.94,14.04-24.51,23.97-6.58,9.95-11.46,20.96-14.65,33.03v98.03c0,9.95,1.68,19.8,5.06,29.57,3.37,9.77,8.43,18.65,15.18,26.64,6.74,7.99,15.09,14.48,25.04,19.45,9.94,4.98,21.66,7.46,35.16,7.46h0Z"/>
    <path class="st4" d="M1526.38,480.49c-18.47,0-35.16-3.38-50.08-10.12s-27.53-16.16-37.83-28.24c-10.31-12.07-18.11-26.28-23.44-42.62-5.33-16.33-7.99-34.1-7.99-53.28,0-21.66,2.75-41.37,8.26-59.14,5.5-17.76,13.4-33.21,23.71-46.35,10.3-13.14,22.73-23.26,37.29-30.37,14.56-7.1,30.72-10.66,48.48-10.66,20.59,0,38,5.33,52.21,15.98,14.2,10.66,24.68,24.69,31.43,42.09,6.74,17.41,8.87,36.23,6.39,56.47h-181.14l.53-14.92h150.24c.71-12.07-.36-23.18-3.2-33.3-2.85-10.12-7.28-19.09-13.32-26.91-6.04-7.81-13.24-13.85-21.58-18.11-8.35-4.26-17.67-6.39-27.97-6.39s-20.25,1.78-28.77,5.33-15.9,8.62-22.11,15.18c-6.22,6.58-11.45,14.65-15.72,24.24-4.26,9.59-7.46,20.51-9.59,32.77-2.13,12.25-3.2,25.67-3.2,40.22,0,23.44,3.9,44.4,11.72,62.87,7.81,18.47,19.09,32.86,33.83,43.15,14.73,10.31,32.23,15.45,52.48,15.45,17.4,0,32.67-5.06,45.82-15.18,13.14-10.12,22.02-23.35,26.64-39.69l6.93,1.6c-2.49,15.98-7.99,29.93-16.52,41.82-8.52,11.9-19.01,21.23-31.43,27.97-12.44,6.74-26.46,10.12-42.09,10.12l.02.02h0Z"/>
    <path class="st4" d="M1750.67,480.49c-18.47,0-35.16-3.38-50.08-10.12s-27.53-16.16-37.83-28.24c-10.31-12.07-18.11-26.28-23.44-42.62-5.33-16.33-7.99-34.1-7.99-53.28,0-21.66,2.75-41.37,8.26-59.14,5.5-17.76,13.4-33.21,23.71-46.35,10.3-13.14,22.73-23.26,37.29-30.37,14.56-7.1,30.72-10.66,48.48-10.66,20.59,0,38,5.33,52.21,15.98,14.2,10.66,24.68,24.69,31.43,42.09,6.74,17.41,8.87,36.23,6.39,56.47h-181.14l.53-14.92h150.24c.71-12.07-.36-23.18-3.2-33.3-2.85-10.12-7.28-19.09-13.32-26.91-6.04-7.81-13.24-13.85-21.58-18.11-8.35-4.26-17.67-6.39-27.97-6.39s-20.25,1.78-28.77,5.33-15.9,8.62-22.11,15.18c-6.22,6.58-11.45,14.65-15.72,24.24-4.26,9.59-7.46,20.51-9.59,32.77-2.13,12.25-3.2,25.67-3.2,40.22,0,23.44,3.9,44.4,11.72,62.87,7.81,18.47,19.09,32.86,33.83,43.15,14.73,10.31,32.23,15.45,52.48,15.45,17.4,0,32.67-5.06,45.82-15.18,13.14-10.12,22.02-23.35,26.64-39.69l6.93,1.6c-2.49,15.98-7.99,29.93-16.52,41.82-8.52,11.9-19.01,21.23-31.43,27.97-12.44,6.74-26.46,10.12-42.09,10.12l.02.02h0Z"/>
  </g>
  <path class="st3" d="M489.93,403.81c-4.03-.9-7.58-2.62-7.58-2.62-3.62-1.76-7.69-6.28-9.05-10.07l-56.13-68.9c-3.21-2.43-2.87-5.84.75-7.6,0,0,52.02-25.21,64.37-33.38,42.03-27.8,71.27-69.51,34.96-108.98-11.69-12.7-26.01-17.8-41.34-17.8-11.52,0-28.58,5.39-28.58,5.39-3.83,1.21-7.46-1.05-8.05-5.03,0,0-10.35-69.17-55.36-69.17-55.22,0-71.24,83.45-71.24,138.66,0,7.83-2.63,17.14-2.63,17.14-1.09,3.87-4.28,8.46-7.09,10.19s-13.51,5.84-17.49,5.17c0,0-13.22-2.25-22.63-2.25-30.71,0-55.24,12.52-69.12,39.53-28.53,55.48,25.63,136.4,115.87,178.26,29.41,13.64,55.73,19.81,78.27,19.81,40.05,0,75.73-45.41,75.73-45.41,2.49-3.17,7.55-4.48,11.26-2.92,0,0,11.69,4.91,19.71,4.91h.42c37.55-.46,68.52-11.01,68.52-20.32s-39.49-17-73.58-24.63h0s0,.01,0,.01h0ZM193.74,347.66c1.81-12.59,15.91-28.71,43.1-49.3,16.81-12.72,50.13-34.03,50.13-34.03,3.39-2.16,7.51-3.61,9.16-3.22s4.11,4.23,1.73,7.47c0,0-59.92,81.42-17.05,81.42,19.99,0,63.33-29.33,63.33-29.33,3.33-2.25,7.76-1.32,9.83,2.08,2.07,3.4,5.59,14.38,1.82,15.77,0,0-41.68,15.36-62.56,21.19-26.14,7.3-47.67,11-63.98,11-15.12,0-25.63-3.18-31.27-9.45-3.59-3.99-4.98-8.44-4.23-13.59h0ZM319.22,268.24c16.86,6.28,45.89,22.41,45.89,22.41,3.52,1.95,4.68,5.23,2.58,7.28-2.1,2.05-10.2,5.15-13.32,2.61,0,0-8.64-7.04-10.45-7.03h-.03c-4.42.11,2.15,14.47,2.15,14.47,1.67,3.66.44,8.67-2.74,11.13,0,0-9.49,7.36-16.89,12.02-17.3,10.9-33.07,16.66-45.62,16.66-8.3,0-13.43-1.66-15.25-4.93-4.1-7.36,6.6-24.62,17.92-42.9,6.95-11.23,17.34-30.28,17.34-30.28,1.92-3.53,6.64-5.44,10.48-4.24,0,0,2.87.9,7.93,2.79h0ZM312.07,263.87c-3.76-1.43-6.1-4.29-5.2-6.36s5.28-8.94,8.1-10.68l2.52-1.55c26.14-16.11,48.7-30.02,59.67-39.89,14.47-13.02,30.96-24.77,46.42-33.09,4.94-2.65,7.8-3.95,7.8-3.95,3.66-1.65,6.45.28,6.19,4.29,0,0-.62,9.5-1.89,18.82-3.47,25.52-27.03,64.18-60.03,98.51l-.86.89c-.94.97-4.61.19-8.15-1.72l-54.58-25.27h0ZM369.55,299.19c2.13-2.09,6.65-2.05,10.06.1,0,0,.12.07,3.28,2.16,8.74,5.78,17.88,11.89,17.88,11.89,3.34,2.24,3.06,5.4-.61,7.01l-8.46,3.67c-3.7,1.58-9.19.69-12.21-1.96l-12.23-10.67c-3.03-2.64.18-10.11,2.3-12.21h0ZM356.62,305.15c.98.83.64,2.5-.75,3.73-1.39,1.23-6.33,1.31-7.9-2.4,0,0-4.3-7.18-4.2-8.45s1.69-1.54,3.55-.63l8.45,7.04.84.7h0ZM353.15,317.28l-.44-.74c-.45-.77.42-2.44,1.93-3.72s7.93-2.6,10.96.04c0,0,6.97,6.05,14.57,12.75l.83.74c.94.82-1.35,2.75-5.06,4.29,0,0-2.68,1.11-7.47,3.03l-1.26.5c-1.37.54-4.33-1.75-6.57-5.08,0,0-4.27-6.36-7.5-11.82h0ZM378.42,332c3.37-1.4,8.61-.37,11.64,2.27l77.64,60.67c3.23,2.39,5.65,7.63,5.35,11.64,0,0-.58,7.97-2.39,17.46-.92,4.83-1.56,6.87-1.56,6.87-1.19,3.84-4.67,4.84-7.72,2.22l-90.76-90.43c-2.53-3.12,4.41-9.3,7.78-10.7h0ZM461.68,362.13c7.93,10.27,10.73,27.44,10.73,27.44.65,3.97-1.46,5.25-4.69,2.85l-75.4-59.1c-3.03-2.65-2.49-6.11,1.21-7.69l8.78-3.82c3.68-1.62,9.37-1.05,12.65,1.28,0,0,36.78,26.15,46.72,39.03h0ZM468.66,157.48c3.99-.46,7.26-.83,7.27-.83s3.23.64,7.17,1.41c0,0,22.11,4.34,32.54,15.68,12.09,13.13,17.31,27.23,15.53,41.87-2.62,21.51-20.41,44.16-50.09,63.8-12.26,8.11-65.28,33.77-65.28,33.77-3.62,1.76-9.32,1.35-12.66-.88,0,0-9.88-6.61-19.04-12.67l-3.04-2.01c-3.33-2.11-4.01-6.4-1.49-9.54,0,0,54.48-68.19,58.3-96.32,1.26-9.28,1.96-20.03,1.96-20.03.26-4.01,3.61-8.29,7.45-9.48l21.38-4.75h0ZM314.89,224.31c0-15.53,1.44-55.33,14.76-89.24,5.74-14.6,12.92-26.02,21.35-33.93,9.42-8.83,20.5-13.31,32.92-13.31,17.11,0,30.31,5.17,39.21,15.37,7.59,8.7,12.37,21.34,14.2,37.58.75,6.68.78,14.84.78,14.84,0,4.02-2.85,8.93-6.36,10.9,0,0-39.31,22.15-56.06,37.22-11.57,10.41-58.51,39.15-58.51,39.15-3.43,2.1-5.41.64-4.4-3.26,0,0,2.09-8.06,2.09-15.34h0ZM303.17,254.12c2.03-1.26,3.16-.97,2.51.66s-3.66,5.59-5.02,5.22.48-4.62,2.52-5.88ZM195.7,295.1c6.57-12.79,15.78-22.53,27.37-28.97,11.17-6.21,32.54-8.56,32.54-8.56,4-.44,7.27-.8,7.27-.8,0,0,3.28.18,7.31.41l12.65,1.4c3.97.63,4.48,2.96,1.13,5.18l-87.81,79.76c-2.62,3.06-5.08,2.28-5.47-1.72,0,0-3.05-30.98,5.02-46.69h0ZM443.49,472.1c-14.33,11.69-33.55,17.87-55.6,17.87-23.28,0-49.3-6.6-77.35-19.61-54.69-25.37-110.58-102.51-110.58-102.51-2.36-3.25-4.1-5.69-3.85-5.4l.23.26c6.42,7.14,17.97,10.17,32.9,10.17,34.22,0,127.8-32.65,127.8-32.65,3.8-1.32,8.97.15,11.5,3.28l92.09,91.66c3.05,2.63,4.01,7.69,2.13,11.24,0,0-9.21,17.46-19.26,25.68h0ZM542.69,439.81c-13.13,4.07-30.52,6.53-47.71,6.74h-.39c-7.73,0-18.95-4.75-18.95-4.75-3.7-1.57-5.76-6-4.56-9.84,0,0,.76-2.45,1.73-7.51,1.71-8.97,2.34-16.7,2.34-16.7.32-4.01,3.57-5.89,7.2-4.17,0,0,3.14,1.48,7.09,2.37,3.36.75,6.76,1.51,10.18,2.26,15.45,3.41,31.42,6.93,43.27,10.59,17.09,5.27,18.42,8.72,18.42,9.65,0,2.79-5.76,7.38-18.63,11.37h0Z"/>
  <g class="st1">
    <text class="st5" transform="translate(597.71 460.45)"><tspan x="0" y="0">surbee</tspan></text>
  </g>
  <g>
    <path class="st4" d="M710.32,453.28c-8.34,0-15.95-1.13-22.84-3.37-6.9-2.25-13.07-4.57-18.52-6.97-5.46-2.41-9.94-4.09-13.47-5.05-3.53-.96-6.18-.4-7.94,1.68-1.77,2.09-2.49,6.82-2.16,14.19h-6.73l-11.54-73.1h6.73c6.41,19.56,16.83,34.31,31.26,44.24,14.43,9.94,29.49,14.91,45.21,14.91,17.31,0,31.42-4.49,42.32-13.47,10.9-8.97,16.35-20.84,16.35-35.59,0-11.86-3.37-21.48-10.1-28.86-6.73-7.37-15.39-13.54-25.97-18.51-10.58-4.97-21.72-9.62-33.42-13.95-11.71-4.33-22.84-9.21-33.42-14.67-10.58-5.45-19.24-12.26-25.97-20.44-6.73-8.18-10.1-18.83-10.1-31.98s2.96-23.32,8.9-32.46c5.93-9.14,14.1-16.27,24.53-21.4,10.42-5.12,22.2-7.69,35.35-7.69,8.66,0,16.43,1.04,23.32,3.13,6.89,2.09,12.82,4.33,17.79,6.73,4.97,2.4,9.14,4.17,12.5,5.29,3.37,1.13,5.85.65,7.45-1.44,1.6-2.08,2.4-6.65,2.4-13.71h6.73l10.58,67.81h-6.73c-6.09-16.99-15.47-30.3-28.13-39.92-12.67-9.62-27.98-14.43-45.93-14.43-14.75,0-27.01,4.09-36.79,12.26-9.78,8.18-14.67,18.84-14.67,31.98,0,10.9,3.37,19.64,10.1,26.21,6.73,6.58,15.39,12.02,25.97,16.35,10.58,4.33,21.72,8.5,33.42,12.5,11.7,4.01,22.84,8.82,33.42,14.43,10.58,5.61,19.24,12.83,25.97,21.64,6.73,8.82,10.1,20.44,10.1,34.87,0,13.47-3.13,25.41-9.38,35.83-6.25,10.42-15.07,18.52-26.45,24.29-11.38,5.77-24.77,8.66-40.16,8.66Z"/>
    <path class="st4" d="M1000.31,453.76c-5.13,0-9.7-1.2-13.71-3.61-4.01-2.4-7.06-6.01-9.14-10.82-2.09-4.81-3.13-10.42-3.13-16.83v-26.45c-15.39,21.48-29.74,36.47-43.04,44.97-13.31,8.49-27.01,12.74-41.12,12.74s-26.21-3.13-36.31-9.38-17.88-15.22-23.32-26.93c-5.46-11.7-8.18-25.56-8.18-41.6v-125.52c0-13.78-2.65-22.2-7.94-25.25-5.29-3.04-15.15-2.8-29.58.72v-6.73l48.09-18.27h6.73v171.21c0,20.52,5.37,35.91,16.11,46.17,10.74,10.26,24.93,15.39,42.56,15.39,14.43,0,27.33-3.92,38.71-11.78,11.38-7.85,23.81-19.96,37.27-36.31v-135.14c0-13.78-2.64-22.2-7.93-25.25-5.29-3.04-15.15-2.8-29.58.72v-6.73l48.09-18.27h6.73v220.26c0,5.46,1.36,9.7,4.09,12.74,2.72,3.05,6.17,4.57,10.34,4.57,3.2,0,6.33-1.12,9.38-3.37,3.04-2.24,6.01-5.93,8.9-11.06l5.77,2.41c-3.21,7.06-6.66,12.59-10.34,16.59-3.69,4-7.21,6.81-10.58,8.42-3.37,1.6-6.33,2.4-8.9,2.4Z"/>
    <path class="st4" d="M1137.37,200.8c11.22,0,19.48,2.09,24.77,6.25,5.29,4.17,7.94,8.82,7.94,13.95,0,1.92-.48,3.85-1.44,5.77-.96,1.92-2.25,3.61-3.85,5.05-1.61,1.44-3.69,2.16-6.25,2.16-3.85,0-6.73-.8-8.66-2.4-1.92-1.6-3.77-3.37-5.53-5.29-1.77-1.92-3.85-3.68-6.25-5.29-2.4-1.6-6.01-2.4-10.82-2.4-8.02,0-15.55,2.89-22.6,8.66-7.06,5.77-12.83,13.71-17.31,23.81-4.49,10.1-6.73,21.57-6.73,34.39v124.08c0,8.02,2.08,14.03,6.25,18.03,4.16,4.01,10.17,6.82,18.03,8.42,7.85,1.61,16.91,2.89,27.17,3.85v6.73h-106.28v-6.73c8.97-.64,16.19-2.08,21.64-4.33,5.45-2.24,9.45-5.53,12.02-9.86,2.56-4.33,3.85-9.69,3.85-16.11v-159.18c0-9.3-1.13-16.03-3.37-20.2-2.25-4.16-6.09-6.49-11.54-6.97-5.46-.48-12.98.41-22.6,2.65v-6.73l48.09-18.27h6.73v52.42c3.2-11.22,7.61-20.68,13.22-28.37,5.61-7.69,12.1-13.62,19.48-17.79,7.37-4.16,15.39-6.25,24.05-6.25Z"/>
    <path class="st4" d="M1284.04,200.8c19.88,0,37.27,5.13,52.18,15.39,14.91,10.26,26.53,24.45,34.87,42.56,8.33,18.12,12.5,39.36,12.5,63.72,0,19.56-2.49,37.35-7.45,53.38-4.97,16.04-12.19,29.9-21.64,41.6-9.46,11.71-20.6,20.68-33.42,26.93-12.83,6.25-27.25,9.38-43.28,9.38s-30.22-3.37-43.52-10.1c-13.31-6.73-23.49-15.55-30.54-26.45l-8.18,36.55h-6.73V148.38c0-9.3-1.13-16.03-3.37-20.2-2.25-4.16-6.09-6.49-11.54-6.97-5.46-.48-12.98.41-22.6,2.65v-6.73l48.09-18.27h6.73v165.44c4.49-18.91,13.86-34.22,28.13-45.93,14.26-11.7,30.85-17.55,49.77-17.55ZM1285.01,440.3c9.29,0,18.03-1.52,26.21-4.57,8.18-3.04,15.46-7.45,21.88-13.23,6.41-5.77,11.86-12.74,16.35-20.92,4.49-8.18,7.94-17.31,10.34-27.41,2.4-10.1,3.61-21.08,3.61-32.94,0-25.32-3.69-47.53-11.06-66.61-7.38-19.07-17.55-33.9-30.54-44.48s-28.3-15.87-45.93-15.87c-11.23,0-21.64,2.97-31.26,8.9-9.62,5.94-17.72,13.87-24.29,23.81-6.57,9.94-11.3,20.84-14.19,32.7v83.68c0,8.98,1.6,17.96,4.81,26.93,3.2,8.98,8.09,17.24,14.67,24.77,6.57,7.54,14.74,13.63,24.53,18.27,9.78,4.65,21.4,6.97,34.87,6.97Z"/>
    <path class="st4" d="M1502.38,453.28c-16.04,0-30.54-2.97-43.52-8.9-12.98-5.93-24.04-14.26-33.18-25.01-9.14-10.74-16.11-23.48-20.92-38.23-4.81-14.74-7.21-30.94-7.21-48.57,0-19.24,2.4-36.87,7.21-52.9,4.81-16.03,11.7-29.97,20.68-41.84,8.97-11.86,19.79-21,32.46-27.41,12.66-6.41,26.69-9.62,42.08-9.62,17.63,0,32.62,4.89,44.96,14.67,12.34,9.78,21.48,22.53,27.41,38.23,5.93,15.71,7.77,32.39,5.53,50.01h-164.47l.48-13.47h144.75c.64-11.22-.48-21.4-3.37-30.54-2.89-9.14-7.21-17.15-12.98-24.05-5.77-6.89-12.67-12.18-20.68-15.87-8.02-3.68-17-5.53-26.93-5.53s-19.48,1.61-27.65,4.81c-8.18,3.21-15.31,7.86-21.4,13.95-6.09,6.09-11.23,13.63-15.39,22.6-4.17,8.98-7.3,19.32-9.38,31.02-2.09,11.71-3.13,24.61-3.13,38.71,0,20.84,3.68,39.43,11.06,55.79,7.37,16.35,17.79,29.09,31.26,38.23,13.46,9.14,29.17,13.71,47.13,13.71,16.03,0,29.97-4.64,41.84-13.95,11.86-9.29,19.88-21.32,24.05-36.07l6.25,1.44c-2.25,13.79-6.97,25.81-14.19,36.07-7.21,10.26-16.19,18.28-26.93,24.05-10.75,5.77-22.69,8.66-35.83,8.66Z"/>
    <path class="st4" d="M1698.1,453.28c-16.04,0-30.54-2.97-43.52-8.9-12.98-5.93-24.04-14.26-33.18-25.01-9.14-10.74-16.11-23.48-20.92-38.23-4.81-14.74-7.21-30.94-7.21-48.57,0-19.24,2.4-36.87,7.21-52.9,4.81-16.03,11.7-29.97,20.68-41.84,8.97-11.86,19.79-21,32.46-27.41,12.66-6.41,26.69-9.62,42.08-9.62,17.63,0,32.62,4.89,44.96,14.67,12.34,9.78,21.48,22.53,27.41,38.23,5.93,15.71,7.77,32.39,5.53,50.01h-164.47l.48-13.47h144.75c.64-11.22-.48-21.4-3.37-30.54-2.89-9.14-7.21-17.15-12.98-24.05-5.77-6.89-12.67-12.18-20.68-15.87-8.02-3.68-17-5.53-26.93-5.53s-19.48,1.61-27.65,4.81c-8.18,3.21-15.31,7.86-21.4,13.95-6.09,6.09-11.23,13.63-15.39,22.6-4.17,8.98-7.3,19.32-9.38,31.02-2.09,11.71-3.13,24.61-3.13,38.71,0,20.84,3.68,39.43,11.06,55.79,7.37,16.35,17.79,29.09,31.26,38.23,13.46,9.14,29.17,13.71,47.13,13.71,16.03,0,29.97-4.64,41.84-13.95,11.86-9.29,19.88-21.32,24.05-36.07l6.25,1.44c-2.25,13.79-6.97,25.81-14.19,36.07-7.21,10.26-16.19,18.28-26.93,24.05-10.75,5.77-22.69,8.66-35.83,8.66Z"/>
  </g>
</svg>