<svg xmlns="http://www.w3.org/2000/svg" width="12" height="13" viewBox="0 0 12 13" fill="none">
<g clip-path="url(#clip0_1044_6115)">
<path d="M0.147049 7.52787C0.120349 7.41405 0.255947 7.34237 0.338615 7.42503L4.7201 11.8065C4.80277 11.8892 4.73108 12.0248 4.61726 11.9981C2.40618 11.4794 0.665735 9.73896 0.147049 7.52787ZM0.000226962 5.77183C-0.00189029 5.80583 0.0108916 5.83902 0.0349756 5.8631L6.28204 12.1102C6.30612 12.1342 6.33931 12.1471 6.37331 12.1449C6.65761 12.1272 6.93656 12.0897 7.2088 12.0338C7.30054 12.015 7.33241 11.9022 7.26618 11.836L0.309114 4.87896C0.242891 4.81273 0.130174 4.8446 0.111333 4.93634C0.0554233 5.20858 0.0179347 5.48753 0.000226962 5.77183ZM0.505312 3.70979C0.485333 3.75464 0.495509 3.80706 0.53023 3.84179L8.30335 11.6149C8.33808 11.6496 8.3905 11.6598 8.43535 11.6398C8.64968 11.5444 8.8574 11.4367 9.05761 11.3177C9.12386 11.2784 9.13409 11.1873 9.0796 11.1329L1.01228 3.06554C0.957788 3.01105 0.866754 3.02128 0.82739 3.08753C0.708432 3.28774 0.600779 3.49546 0.505312 3.70979ZM1.51904 2.31402C1.47463 2.26961 1.47188 2.19838 1.51373 2.15153C2.61354 0.920259 4.21337 0.145142 5.99423 0.145142C9.31112 0.145142 12 2.83402 12 6.15091C12 7.93177 11.2249 9.5316 9.99361 10.6314C9.94678 10.6733 9.87553 10.6705 9.83111 10.6261L1.51904 2.31402Z" fill="#2c2c2c"/>
</g>
<defs>
<clipPath id="clip0_1044_6115">
<rect width="12" height="12" fill="white" transform="translate(0 0.145142)"/>
</clipPath>
</defs>
</svg>