<svg xmlns="http://www.w3.org/2000/svg" width="12" height="13" viewBox="0 0 12 13" fill="none">
<g clip-path="url(#clip0_1044_7279)">
<path fill-rule="evenodd" clip-rule="evenodd" d="M7.362 0.672403L0.72204 1.16284C0.18636 1.20916 0 1.5592 0 1.97872V9.25792C0 9.58468 0.11604 9.86428 0.396 10.238L1.95684 12.2675C2.21328 12.5943 2.44644 12.6644 2.93604 12.6411L10.6469 12.1743C11.2988 12.1278 11.4857 11.8242 11.4857 11.3111V3.12196C11.4857 2.85676 11.3809 2.78032 11.0725 2.554L8.90004 1.02232C8.38728 0.649483 8.17764 0.602323 7.362 0.672283V0.672403ZM3.1104 2.98792C2.48076 3.03028 2.33796 3.03988 1.98036 2.74912L1.07124 2.026C0.97884 1.9324 1.02528 1.81564 1.25808 1.79236L7.64124 1.32592C8.17728 1.27912 8.4564 1.46596 8.66604 1.62916L9.7608 2.42236C9.8076 2.446 9.924 2.58556 9.78396 2.58556L3.192 2.9824L3.1104 2.98792ZM2.37636 11.2412V4.2892C2.37636 3.9856 2.4696 3.84556 2.74872 3.82204L10.32 3.37876C10.5768 3.3556 10.6928 3.5188 10.6928 3.82192V10.7276C10.6928 11.0312 10.646 11.288 10.2269 11.3111L2.98164 11.7311C2.56248 11.7543 2.37648 11.6147 2.37648 11.2412H2.37636ZM9.52836 4.66192C9.5748 4.87192 9.52836 5.08192 9.31836 5.10592L8.96916 5.17516V10.3079C8.66592 10.4711 8.3868 10.5644 8.15352 10.5644C7.78068 10.5644 7.68756 10.4476 7.40832 10.0979L5.12472 6.50512V9.98116L5.84712 10.1447C5.84712 10.1447 5.84712 10.5647 5.26428 10.5647L3.65748 10.658C3.61068 10.5644 3.65748 10.3312 3.82032 10.2848L4.23996 10.1684V5.57236L3.6576 5.5252C3.6108 5.3152 3.7272 5.01196 4.0536 4.98844L5.77764 4.8724L8.15364 8.51164V5.29204L7.548 5.22244C7.5012 4.96528 7.68756 4.77844 7.92036 4.75564L9.52836 4.66192Z" fill="#444141"/>
</g>
<defs>
<clipPath id="clip0_1044_7279">
<rect width="12" height="12" fill="white" transform="translate(0 0.645142)"/>
</clipPath>
</defs>
</svg>