<svg width="112" height="77" viewBox="0 0 112 77" fill="none" xmlns="http://www.w3.org/2000/svg">
<rect width="112" height="77" rx="4" fill="white"/>
<rect x="7.34375" y="4" width="0.779661" height="69" fill="#242422"/>
<rect x="16.9375" y="4" width="0.38983" height="69" fill="#242422"/>
<rect width="0.779661" height="69" transform="matrix(-1 0 0 1 26.9219 4)" fill="#242422"/>
<rect width="1.16949" height="69" transform="matrix(-1 0 0 1 36.9062 4)" fill="#242422"/>
<rect width="1.55932" height="69" transform="matrix(-1 0 0 1 47.2812 4)" fill="#242422"/>
<rect width="1.94915" height="69" transform="matrix(-1 0 0 1 58.0469 4)" fill="#242422"/>
<rect width="2.33898" height="69" transform="matrix(-1 0 0 1 69.1953 4)" fill="#242422"/>
<rect width="2.72881" height="69" transform="matrix(-1 0 0 1 80.7422 4)" fill="#242422"/>
<rect x="89.5547" y="4" width="3.11864" height="69" fill="#242422"/>
<rect x="101.484" y="4" width="2.72881" height="69" fill="#242422"/>
</svg>
