<svg width="112" height="146" viewBox="0 0 112 146" fill="none" xmlns="http://www.w3.org/2000/svg">
<rect y="0.320312" width="112" height="145" rx="4" fill="white"/>
<rect x="7.34375" y="4.32031" width="0.779661" height="69" fill="#242422"/>
<rect width="0.779661" height="69" transform="matrix(-1 0 0 1 104.211 73.3203)" fill="#242422"/>
<rect x="16.9375" y="4.32031" width="0.38983" height="69" fill="#242422"/>
<rect width="0.38983" height="69" transform="matrix(-1 0 0 1 94.6172 73.3203)" fill="#242422"/>
<rect width="0.779661" height="69" transform="matrix(-1 0 0 1 26.9219 4.32031)" fill="#242422"/>
<rect x="84.6328" y="73.3203" width="0.779661" height="69" fill="#242422"/>
<rect width="1.16949" height="69" transform="matrix(-1 0 0 1 36.9062 4.32031)" fill="#242422"/>
<rect x="74.6484" y="73.3203" width="1.16949" height="69" fill="#242422"/>
<rect width="1.55932" height="69" transform="matrix(-1 0 0 1 47.2812 4.32031)" fill="#242422"/>
<rect x="64.2734" y="73.3203" width="1.55932" height="69" fill="#242422"/>
<rect width="1.94915" height="69" transform="matrix(-1 0 0 1 58.0469 4.32031)" fill="#242422"/>
<rect x="53.5078" y="73.3203" width="1.94915" height="69" fill="#242422"/>
<rect width="2.33898" height="69" transform="matrix(-1 0 0 1 69.1953 4.32031)" fill="#242422"/>
<rect x="42.3594" y="73.3203" width="2.33898" height="69" fill="#242422"/>
<rect width="2.72881" height="69" transform="matrix(-1 0 0 1 80.7422 4.32031)" fill="#242422"/>
<rect x="30.8125" y="73.3203" width="2.72881" height="69" fill="#242422"/>
<rect x="89.5547" y="4.32031" width="3.11864" height="69" fill="#242422"/>
<rect width="3.11864" height="69" transform="matrix(-1 0 0 1 22 73.3203)" fill="#242422"/>
<rect x="101.484" y="4.32031" width="2.72881" height="69" fill="#242422"/>
<rect width="2.72881" height="69" transform="matrix(-1 0 0 1 10.0703 73.3203)" fill="#242422"/>
</svg>
