<svg width="198" height="78" viewBox="0 0 198 78" fill="none" xmlns="http://www.w3.org/2000/svg">
<g clip-path="url(#clip0_2816_891)">
<rect y="0.320312" width="198" height="77" rx="4" fill="white"/>
<rect x="7.34375" y="4.32031" width="0.779661" height="69" fill="#242422"/>
<rect x="179" y="4.32031" width="0.779661" height="69" fill="#242422"/>
<rect x="16.9375" y="4.32031" width="0.38983" height="69" fill="#242422"/>
<rect x="170" y="4.32031" width="0.38983" height="69" fill="#242422"/>
<rect width="0.779661" height="69" transform="matrix(-1 0 0 1 26.9219 4.32031)" fill="#242422"/>
<rect width="0.779661" height="69" transform="matrix(-1 0 0 1 160.781 4.32031)" fill="#242422"/>
<rect width="1.16949" height="69" transform="matrix(-1 0 0 1 36.9062 4.32031)" fill="#242422"/>
<rect width="1.16949" height="69" transform="matrix(-1 0 0 1 151.172 4.32031)" fill="#242422"/>
<rect width="1.16949" height="69" transform="matrix(-1 0 0 1 189.172 4.32031)" fill="#242422"/>
<rect width="1.55932" height="69" transform="matrix(-1 0 0 1 47.2812 4.32031)" fill="#242422"/>
<rect width="1.94915" height="69" transform="matrix(-0.965926 0.258819 0.258819 0.965926 57.0859 5.24219)" fill="#242422"/>
<rect width="1.94915" height="69" transform="matrix(-1 -8.74228e-08 -8.74228e-08 1 140.945 4.32031)" fill="#242422"/>
<rect width="1.94915" height="69" transform="matrix(-1 -8.74228e-08 -8.74228e-08 1 199.945 4.32031)" fill="#242422"/>
<rect width="2.33898" height="69" transform="matrix(-1 0 0 1 84.1953 4.32031)" fill="#242422"/>
<rect width="2.33898" height="69" transform="matrix(-1 0 0 1 130.336 4.32031)" fill="#242422"/>
<rect width="2.72881" height="69" transform="matrix(-1 0 0 1 95.7422 4.32031)" fill="#242422"/>
<rect x="104.555" y="4.32031" width="3.11864" height="69" fill="#242422"/>
<rect x="116.484" y="4.32031" width="2.72881" height="69" fill="#242422"/>
</g>
<defs>
<clipPath id="clip0_2816_891">
<rect y="0.320312" width="198" height="77" rx="4" fill="white"/>
</clipPath>
</defs>
</svg>
