<svg width="112" height="27" viewBox="0 0 112 27" fill="none" xmlns="http://www.w3.org/2000/svg">
<rect y="0.320312" width="112" height="26" rx="4" fill="white"/>
<rect x="7.28125" y="4.32031" width="1" height="18" fill="#242422"/>
<rect x="17" y="4.32031" width="0.5" height="18" fill="#242422"/>
<rect width="1" height="18" transform="matrix(-1 0 0 1 27.2812 4.32031)" fill="#242422"/>
<rect width="1" height="18" transform="matrix(-1 0 0 1 37.2812 4.32031)" fill="#242422"/>
<rect width="1" height="18" transform="matrix(-1 0 0 1 47.2812 4.32031)" fill="#242422"/>
<rect width="2" height="18" transform="matrix(-1 0 0 1 58.2812 4.32031)" fill="#242422"/>
<rect width="2" height="18" transform="matrix(-1 0 0 1 69.2812 4.32031)" fill="#242422"/>
<rect width="3" height="18" transform="matrix(-1 0 0 1 81.2812 4.32031)" fill="#242422"/>
<rect x="90.2812" y="4.32031" width="3" height="18" fill="#242422"/>
<rect x="101.281" y="4.32031" width="3" height="18" fill="#242422"/>
</svg>
