<?xml version="1.0" encoding="UTF-8" standalone="no"?>
<!DOCTYPE svg PUBLIC "-//W3C//DTD SVG 1.1//EN" "http://www.w3.org/Graphics/SVG/1.1/DTD/svg11.dtd">
<svg width="100%" height="100%" viewBox="0 0 305 646" version="1.1" xmlns="http://www.w3.org/2000/svg" xmlns:xlink="http://www.w3.org/1999/xlink" xml:space="preserve" xmlns:serif="http://www.serif.com/" style="fill-rule:evenodd;clip-rule:evenodd;">
    <path d="M28.274,477C3.733,393.147 -49,213.5 114,102" style="fill:none;fill-rule:nonzero;stroke:black;stroke-opacity:0.5;stroke-width:0.5px;stroke-dasharray:3,3;"/>
    <path d="M139,102C139.003,410.5 255,298 255,574" style="fill:none;fill-rule:nonzero;stroke:black;stroke-opacity:0.5;stroke-width:0.5px;stroke-dasharray:3,3;"/>
    <path d="M60,626C207,528 239.163,469.866 211.163,446.182C185.163,424.188 117.657,492.187 102.658,509.183" style="fill:none;fill-rule:nonzero;stroke:black;stroke-opacity:0.5;stroke-width:0.5px;stroke-dasharray:3,3;"/>
    <path d="M196,7.141L196,32.859C196,36.8 192.8,40 188.859,40L104.141,40C100.2,40 97,36.8 97,32.859L97,7.141C97,3.2 100.2,0 104.141,0L188.859,0C192.8,0 196,3.2 196,7.141Z" style="fill:rgb(244,242,239);"/>
    <path d="M195.643,7.141L195.643,32.859C195.643,36.603 192.603,39.643 188.859,39.643L104.141,39.643C100.397,39.643 97.357,36.603 97.357,32.859L97.357,7.141C97.357,3.397 100.397,0.357 104.141,0.357L188.859,0.357C192.603,0.357 195.643,3.397 195.643,7.141Z" style="fill:none;stroke:black;stroke-opacity:0.1;stroke-width:0.71px;"/>
    <path d="M113.128,20.124L112.18,19.896C111.028,19.644 109.984,18.924 109.984,17.532C109.984,16.032 111.28,15.144 112.84,15.144C114.184,15.144 115.54,15.864 115.732,17.592L114.604,17.592C114.472,16.548 113.572,16.2 112.78,16.2C111.988,16.2 111.16,16.596 111.16,17.496C111.16,18.264 111.712,18.636 112.42,18.792L113.284,18.984C114.676,19.296 115.912,19.896 115.912,21.564C115.912,23.196 114.652,24.156 112.972,24.156C111.196,24.156 109.924,23.016 109.828,21.288L110.956,21.288C111.088,22.452 111.892,23.1 113.008,23.1C113.872,23.1 114.76,22.656 114.76,21.648C114.76,20.736 114.088,20.352 113.128,20.124ZM121.954,15.288L123.094,15.288L123.094,24L121.954,24L121.954,20.052L118.594,20.052L118.594,24L117.454,24L117.454,15.288L118.594,15.288L118.594,18.972L121.954,18.972L121.954,15.288ZM128.284,15.3L131.14,24L129.916,24L129.328,22.14L126.004,22.14L125.428,24L124.204,24L127.06,15.3L128.284,15.3ZM127.672,16.824L126.34,21.072L128.992,21.072L127.672,16.824ZM136.965,24L135.261,20.328C135.057,20.34 134.853,20.34 134.625,20.34L133.641,20.34L133.641,24L132.501,24L132.501,15.3L134.625,15.3C136.521,15.3 137.985,15.708 137.985,17.784C137.985,19.14 137.373,19.812 136.413,20.112L138.261,24L136.965,24ZM134.757,16.38L133.641,16.38L133.641,19.26L134.757,19.26C135.909,19.26 136.809,19.152 136.809,17.808C136.809,16.464 135.909,16.38 134.757,16.38ZM139.935,24L139.935,15.3L145.119,15.3L145.119,16.38L141.075,16.38L141.075,18.972L144.879,18.972L144.879,20.052L141.075,20.052L141.075,22.92L145.119,22.92L145.119,24L139.935,24ZM147.441,15.3L149.577,15.3C151.485,15.3 152.949,15.816 152.949,17.976C152.949,20.136 151.485,20.652 149.577,20.652L148.581,20.652L148.581,24L147.441,24L147.441,15.3ZM149.721,16.38L148.581,16.38L148.581,19.572L149.721,19.572C150.885,19.572 151.773,19.392 151.773,17.976C151.773,16.56 150.885,16.38 149.721,16.38ZM157.263,15.144C159.435,15.144 160.515,17.016 160.515,19.644C160.515,22.272 159.435,24.156 157.263,24.156C155.091,24.156 154.011,22.272 154.011,19.644C154.011,17.016 155.091,15.144 157.263,15.144ZM157.263,16.2C155.811,16.2 155.187,17.424 155.187,19.644C155.187,21.864 155.811,23.1 157.263,23.1C158.715,23.1 159.339,21.852 159.339,19.644C159.339,17.436 158.715,16.2 157.263,16.2ZM161.889,16.38L161.889,15.3L167.421,15.3L167.421,16.38L165.225,16.38L165.225,22.92L167.421,22.92L167.421,24L161.889,24L161.889,22.92L164.085,22.92L164.085,16.38L161.889,16.38ZM174.866,24L173.162,24L170.378,16.572L170.378,24L169.238,24L169.238,15.3L170.942,15.3L173.726,22.704L173.726,15.3L174.866,15.3L174.866,24ZM178.88,24L178.88,16.38L176.264,16.38L176.264,15.3L182.636,15.3L182.636,16.38L180.02,16.38L180.02,24L178.88,24Z" style="fill:rgb(36,36,34);fill-rule:nonzero;"/>
    <path d="M298,112.141L298,137.859C298,141.8 294.8,145 290.859,145L236.141,145C232.2,145 229,141.8 229,137.859L229,112.141C229,108.2 232.2,105 236.141,105L290.859,105C294.8,105 298,108.2 298,112.141Z" style="fill:rgb(244,242,239);"/>
    <path d="M297.643,112.141L297.643,137.859C297.643,141.603 294.603,144.643 290.859,144.643L236.141,144.643C232.397,144.643 229.357,141.603 229.357,137.859L229.357,112.141C229.357,108.397 232.397,105.357 236.141,105.357L290.859,105.357C294.603,105.357 297.643,108.397 297.643,112.141Z" style="fill:none;stroke:black;stroke-opacity:0.1;stroke-width:0.71px;"/>
    <g transform="matrix(1,0,0,1,3.544,-0.132)">
        <path d="M246.556,120.288L247.696,120.288L247.696,129L246.556,129L246.556,125.052L243.196,125.052L243.196,129L242.056,129L242.056,120.288L243.196,120.288L243.196,123.972L246.556,123.972L246.556,120.288ZM249.502,121.38L249.502,120.3L255.034,120.3L255.034,121.38L252.838,121.38L252.838,127.92L255.034,127.92L255.034,129L249.502,129L249.502,127.92L251.698,127.92L251.698,121.38L249.502,121.38ZM259.696,121.2C258.292,121.2 257.596,122.376 257.596,124.632C257.596,126.78 258.256,128.1 259.696,128.1C260.752,128.1 261.724,127.632 261.724,125.844L261.724,125.568L259.72,125.568L259.72,124.488L262.768,124.488L262.768,129L261.904,129L261.856,127.908C261.34,128.808 260.704,129.156 259.648,129.156C257.392,129.156 256.42,127.272 256.42,124.632C256.42,121.944 257.548,120.144 259.756,120.144C261.4,120.144 262.468,121.2 262.744,122.988L261.568,122.988C261.4,121.98 260.944,121.2 259.696,121.2ZM268.749,120.288L269.889,120.288L269.889,129L268.749,129L268.749,125.052L265.389,125.052L265.389,129L264.249,129L264.249,120.288L265.389,120.288L265.389,123.972L268.749,123.972L268.749,120.288ZM274.652,120.132C276.824,120.132 277.904,122.016 277.904,124.644C277.904,125.988 277.628,127.08 277.088,127.896L277.928,128.832L277.268,129.576L276.404,128.616C275.924,128.964 275.36,129.156 274.652,129.156C272.48,129.156 271.4,127.272 271.4,124.644C271.4,122.016 272.48,120.132 274.652,120.132ZM274.652,121.2C273.2,121.2 272.576,122.424 272.576,124.644C272.576,126.864 273.2,128.1 274.652,128.1C275.048,128.1 275.396,128.004 275.672,127.812L274.856,126.9L275.528,126.144L276.308,127.032C276.584,126.468 276.728,125.664 276.728,124.644C276.728,122.436 276.104,121.2 274.652,121.2Z" style="fill:rgb(36,36,34);fill-rule:nonzero;"/>
    </g>
    <path d="M155,501.141L155,526.859C155,530.8 151.8,534 147.859,534L78.141,534C74.2,534 71,530.8 71,526.859L71,501.141C71,497.2 74.2,494 78.141,494L147.859,494C151.8,494 155,497.2 155,501.141Z" style="fill:rgb(244,242,239);"/>
    <path d="M154.643,501.141L154.643,526.859C154.643,530.603 151.603,533.643 147.859,533.643L78.141,533.643C74.397,533.643 71.357,530.603 71.357,526.859L71.357,501.141C71.357,497.397 74.397,494.357 78.141,494.357L147.859,494.357C151.603,494.357 154.643,497.397 154.643,501.141Z" style="fill:none;stroke:black;stroke-opacity:0.1;stroke-width:0.71px;"/>
    <path d="M86.876,509.144C89.048,509.144 90.128,511.016 90.128,513.644C90.128,516.272 89.048,518.156 86.876,518.156C84.704,518.156 83.624,516.272 83.624,513.644C83.624,511.016 84.704,509.144 86.876,509.144ZM86.876,510.2C85.424,510.2 84.8,511.424 84.8,513.644C84.8,515.864 85.424,517.1 86.876,517.1C88.328,517.1 88.952,515.852 88.952,513.644C88.952,511.436 88.328,510.2 86.876,510.2ZM97.082,518L95.378,518L92.594,510.572L92.594,518L91.454,518L91.454,509.3L93.158,509.3L95.942,516.704L95.942,509.3L97.082,509.3L97.082,518ZM99.14,518L99.14,509.3L104.324,509.3L104.324,510.38L100.28,510.38L100.28,512.972L104.084,512.972L104.084,514.052L100.28,514.052L100.28,516.92L104.324,516.92L104.324,518L99.14,518ZM111.109,513.644C111.109,510.668 109.393,510.38 107.773,510.38L107.461,510.38L107.461,516.92L107.773,516.92C109.393,516.92 111.109,516.596 111.109,513.644ZM106.321,509.3L107.809,509.3C110.281,509.3 112.273,510.32 112.273,513.644C112.273,516.956 110.281,518 107.809,518L106.321,518L106.321,509.3ZM118.363,518L116.659,514.328C116.455,514.34 116.251,514.34 116.023,514.34L115.039,514.34L115.039,518L113.899,518L113.899,509.3L116.023,509.3C117.919,509.3 119.383,509.708 119.383,511.784C119.383,513.14 118.771,513.812 117.811,514.112L119.659,518L118.363,518ZM116.155,510.38L115.039,510.38L115.039,513.26L116.155,513.26C117.307,513.26 118.207,513.152 118.207,511.808C118.207,510.464 117.307,510.38 116.155,510.38ZM121.093,510.38L121.093,509.3L126.625,509.3L126.625,510.38L124.429,510.38L124.429,516.92L126.625,516.92L126.625,518L121.093,518L121.093,516.92L123.289,516.92L123.289,510.38L121.093,510.38ZM130.651,518L127.915,509.3L129.139,509.3L131.251,516.476L133.375,509.3L134.599,509.3L131.863,518L130.651,518ZM136.129,518L136.129,509.3L141.313,509.3L141.313,510.38L137.269,510.38L137.269,512.972L141.073,512.972L141.073,514.052L137.269,514.052L137.269,516.92L141.313,516.92L141.313,518L136.129,518Z" style="fill:rgb(36,36,34);fill-rule:nonzero;"/>
    <path d="M180,78.141L180,103.859C180,107.8 176.8,111 172.859,111L7.141,111C3.2,111 0,107.8 0,103.859L0,78.141C0,74.2 3.2,71 7.141,71L172.859,71C176.8,71 180,74.2 180,78.141Z" style="fill:rgb(244,242,239);"/>
    <path d="M179.643,78.141L179.643,103.859C179.643,107.603 176.603,110.643 172.859,110.643L7.141,110.643C3.397,110.643 0.357,107.603 0.357,103.859L0.357,78.141C0.357,74.397 3.397,71.357 7.141,71.357L172.859,71.357C176.603,71.357 179.643,74.397 179.643,78.141Z" style="fill:none;stroke:black;stroke-opacity:0.1;stroke-width:0.71px;"/>
    <path d="M13.344,95L13.344,86.3L18.528,86.3L18.528,87.38L14.484,87.38L14.484,89.972L18.288,89.972L18.288,91.052L14.484,91.052L14.484,93.92L18.528,93.92L18.528,95L13.344,95ZM19.794,95L22.638,90.416L20.118,86.3L21.438,86.3L23.298,89.348L25.194,86.3L26.442,86.3L23.922,90.368L26.754,95L25.446,95L23.262,91.436L21.054,95L19.794,95ZM28.248,86.3L30.384,86.3C32.292,86.3 33.756,86.816 33.756,88.976C33.756,91.136 32.292,91.652 30.384,91.652L29.388,91.652L29.388,95L28.248,95L28.248,86.3ZM30.528,87.38L29.388,87.38L29.388,90.572L30.528,90.572C31.692,90.572 32.58,90.392 32.58,88.976C32.58,87.56 31.692,87.38 30.528,87.38ZM35.537,95L35.537,86.3L40.721,86.3L40.721,87.38L36.677,87.38L36.677,89.972L40.481,89.972L40.481,91.052L36.677,91.052L36.677,93.92L40.721,93.92L40.721,95L35.537,95ZM47.363,95L45.659,91.328C45.455,91.34 45.251,91.34 45.023,91.34L44.039,91.34L44.039,95L42.899,95L42.899,86.3L45.023,86.3C46.919,86.3 48.383,86.708 48.383,88.784C48.383,90.14 47.771,90.812 46.811,91.112L48.659,95L47.363,95ZM45.155,87.38L44.039,87.38L44.039,90.26L45.155,90.26C46.307,90.26 47.207,90.152 47.207,88.808C47.207,87.464 46.307,87.38 45.155,87.38ZM50.093,87.38L50.093,86.3L55.625,86.3L55.625,87.38L53.429,87.38L53.429,93.92L55.625,93.92L55.625,95L50.093,95L50.093,93.92L52.289,93.92L52.289,87.38L50.093,87.38ZM57.731,95L57.731,86.3L62.915,86.3L62.915,87.38L58.871,87.38L58.871,89.972L62.675,89.972L62.675,91.052L58.871,91.052L58.871,93.92L62.915,93.92L62.915,95L57.731,95ZM70.469,95L68.765,95L65.981,87.572L65.981,95L64.841,95L64.841,86.3L66.545,86.3L69.329,93.704L69.329,86.3L70.469,86.3L70.469,95ZM76.979,92.3L78.119,92.3C77.819,94.184 76.691,95.156 75.095,95.156C72.983,95.156 71.975,93.272 71.975,90.632C71.975,87.932 73.103,86.132 75.179,86.132C76.679,86.132 77.807,87.296 78.095,89.06L76.931,89.06C76.775,88.064 76.247,87.2 75.143,87.2C73.882,87.2 73.15,88.376 73.15,90.632C73.15,92.78 73.823,94.1 75.167,94.1C76.271,94.1 76.823,93.356 76.979,92.3ZM79.924,95L79.924,86.3L85.108,86.3L85.108,87.38L81.064,87.38L81.064,89.972L84.868,89.972L84.868,91.052L81.064,91.052L81.064,93.92L85.108,93.92L85.108,95L79.924,95ZM97.828,92L96.676,92L95.404,87.416L95.404,95L94.264,95L94.264,86.3L96.052,86.3L97.252,90.752L98.452,86.3L100.24,86.3L100.24,95L99.1,95L99.1,87.416L97.828,92ZM105.262,86.3L108.118,95L106.894,95L106.306,93.14L102.982,93.14L102.406,95L101.182,95L104.038,86.3L105.262,86.3ZM104.65,87.824L103.318,92.072L105.97,92.072L104.65,87.824ZM114.856,95L113.152,95L110.368,87.572L110.368,95L109.228,95L109.228,86.3L110.932,86.3L113.716,93.704L113.716,86.3L114.856,86.3L114.856,95ZM120.057,86.3L122.913,95L121.689,95L121.101,93.14L117.777,93.14L117.201,95L115.977,95L118.833,86.3L120.057,86.3ZM119.445,87.824L118.113,92.072L120.765,92.072L119.445,87.824ZM126.867,87.2C125.463,87.2 124.767,88.376 124.767,90.632C124.767,92.78 125.427,94.1 126.867,94.1C127.923,94.1 128.895,93.632 128.895,91.844L128.895,91.568L126.891,91.568L126.891,90.488L129.939,90.488L129.939,95L129.075,95L129.027,93.908C128.511,94.808 127.875,95.156 126.819,95.156C124.563,95.156 123.591,93.272 123.591,90.632C123.591,87.944 124.719,86.144 126.927,86.144C128.571,86.144 129.639,87.2 129.915,88.988L128.739,88.988C128.571,87.98 128.115,87.2 126.867,87.2ZM131.709,95L131.709,86.3L136.893,86.3L136.893,87.38L132.849,87.38L132.849,89.972L136.653,89.972L136.653,91.052L132.849,91.052L132.849,93.92L136.893,93.92L136.893,95L131.709,95ZM142.215,92L141.063,92L139.791,87.416L139.791,95L138.651,95L138.651,86.3L140.439,86.3L141.639,90.752L142.839,86.3L144.627,86.3L144.627,95L143.487,95L143.487,87.416L142.215,92ZM146.505,95L146.505,86.3L151.689,86.3L151.689,87.38L147.645,87.38L147.645,89.972L151.449,89.972L151.449,91.052L147.645,91.052L147.645,93.92L151.689,93.92L151.689,95L146.505,95ZM159.242,95L157.538,95L154.754,87.572L154.754,95L153.614,95L153.614,86.3L155.318,86.3L158.102,93.704L158.102,86.3L159.242,86.3L159.242,95ZM163.256,95L163.256,87.38L160.64,87.38L160.64,86.3L167.012,86.3L167.012,87.38L164.396,87.38L164.396,95L163.256,95Z" style="fill:rgb(36,36,34);fill-rule:nonzero;"/>
    <path d="M61,468.141L61,493.859C61,497.8 57.8,501 53.859,501L21.141,501C17.2,501 14,497.8 14,493.859L14,468.141C14,464.2 17.2,461 21.141,461L53.859,461C57.8,461 61,464.2 61,468.141Z" style="fill:rgb(244,242,239);"/>
    <path d="M60.643,468.141L60.643,493.859C60.643,497.603 57.603,500.643 53.859,500.643L21.141,500.643C17.397,500.643 14.357,497.603 14.357,493.859L14.357,468.141C14.357,464.397 17.397,461.357 21.141,461.357L53.859,461.357C57.603,461.357 60.643,464.397 60.643,468.141Z" style="fill:none;stroke:black;stroke-opacity:0.1;stroke-width:0.71px;"/>
    <path d="M31.916,480.644C31.916,477.668 30.2,477.38 28.58,477.38L28.268,477.38L28.268,483.92L28.58,483.92C30.2,483.92 31.916,483.596 31.916,480.644ZM27.128,476.3L28.616,476.3C31.088,476.3 33.08,477.32 33.08,480.644C33.08,483.956 31.088,485 28.616,485L27.128,485L27.128,476.3ZM37.85,482L36.698,482L35.426,477.416L35.426,485L34.286,485L34.286,476.3L36.074,476.3L37.274,480.752L38.474,476.3L40.262,476.3L40.262,485L39.122,485L39.122,477.416L37.85,482ZM44.924,481.124L43.976,480.896C42.824,480.644 41.78,479.924 41.78,478.532C41.78,477.032 43.076,476.144 44.636,476.144C45.98,476.144 47.336,476.864 47.528,478.592L46.4,478.592C46.268,477.548 45.368,477.2 44.576,477.2C43.784,477.2 42.956,477.596 42.956,478.496C42.956,479.264 43.508,479.636 44.216,479.792L45.08,479.984C46.472,480.296 47.708,480.896 47.708,482.564C47.708,484.196 46.448,485.156 44.768,485.156C42.992,485.156 41.72,484.016 41.624,482.288L42.752,482.288C42.884,483.452 43.688,484.1 44.804,484.1C45.668,484.1 46.556,483.656 46.556,482.648C46.556,481.736 45.884,481.352 44.924,481.124Z" style="fill:rgb(36,36,34);fill-rule:nonzero;"/>
    <path d="M88,613.141L88,638.859C88,642.8 84.8,646 80.859,646L33.141,646C29.2,646 26,642.8 26,638.859L26,613.141C26,609.2 29.2,606 33.141,606L80.859,606C84.8,606 88,609.2 88,613.141Z" style="fill:rgb(244,242,239);"/>
    <path d="M87.643,613.141L87.643,638.859C87.643,642.603 84.603,645.643 80.859,645.643L33.141,645.643C29.397,645.643 26.357,642.603 26.357,638.859L26.357,613.141C26.357,609.397 29.397,606.357 33.141,606.357L80.859,606.357C84.603,606.357 87.643,609.397 87.643,613.141Z" style="fill:none;stroke:black;stroke-opacity:0.1;stroke-width:0.71px;"/>
    <path d="M39.344,630L39.344,621.3L44.528,621.3L44.528,622.38L40.484,622.38L40.484,624.972L44.288,624.972L44.288,626.052L40.484,626.052L40.484,628.92L44.528,628.92L44.528,630L39.344,630ZM49.85,627L48.698,627L47.426,622.416L47.426,630L46.286,630L46.286,621.3L48.074,621.3L49.274,625.752L50.474,621.3L52.262,621.3L52.262,630L51.122,630L51.122,622.416L49.85,627ZM57.284,621.3L60.14,630L58.916,630L58.328,628.14L55.004,628.14L54.428,630L53.204,630L56.06,621.3L57.284,621.3ZM56.672,622.824L55.34,627.072L57.992,627.072L56.672,622.824ZM61.297,622.38L61.297,621.3L66.829,621.3L66.829,622.38L64.633,622.38L64.633,628.92L66.829,628.92L66.829,630L61.297,630L61.297,628.92L63.493,628.92L63.493,622.38L61.297,622.38ZM70.231,621.3L70.231,628.92L74.503,628.92L74.503,630L69.091,630L69.091,621.3L70.231,621.3Z" style="fill:rgb(36,36,34);fill-rule:nonzero;"/>
    <path d="M282,105C271.796,66.077 237.543,25.935 196,21" style="fill:none;fill-rule:nonzero;stroke:black;stroke-opacity:0.5;stroke-width:0.5px;stroke-dasharray:3,3;"/>
    <path d="M305,553.141L305,578.859C305,582.8 301.8,586 297.859,586L228.141,586C224.2,586 221,582.8 221,578.859L221,553.141C221,549.2 224.2,546 228.141,546L297.859,546C301.8,546 305,549.2 305,553.141Z" style="fill:rgb(244,242,239);"/>
    <path d="M304.643,553.141L304.643,578.859C304.643,582.603 301.603,585.643 297.859,585.643L228.141,585.643C224.397,585.643 221.357,582.603 221.357,578.859L221.357,553.141C221.357,549.397 224.397,546.357 228.141,546.357L297.859,546.357C301.603,546.357 304.643,549.397 304.643,553.141Z" style="fill:none;stroke:black;stroke-opacity:0.1;stroke-width:0.71px;"/>
    <path d="M234.104,562.38L234.104,561.3L239.636,561.3L239.636,562.38L237.44,562.38L237.44,568.92L239.636,568.92L239.636,570L234.104,570L234.104,568.92L236.3,568.92L236.3,562.38L234.104,562.38ZM247.082,570L245.378,570L242.594,562.572L242.594,570L241.454,570L241.454,561.3L243.158,561.3L245.942,568.704L245.942,561.3L247.082,561.3L247.082,570ZM251.096,570L251.096,562.38L248.48,562.38L248.48,561.3L254.852,561.3L254.852,562.38L252.236,562.38L252.236,570L251.096,570ZM260.965,570L259.261,566.328C259.057,566.34 258.853,566.34 258.625,566.34L257.641,566.34L257.641,570L256.501,570L256.501,561.3L258.625,561.3C260.521,561.3 261.985,561.708 261.985,563.784C261.985,565.14 261.373,565.812 260.413,566.112L262.261,570L260.965,570ZM258.757,562.38L257.641,562.38L257.641,565.26L258.757,565.26C259.909,565.26 260.809,565.152 260.809,563.808C260.809,562.464 259.909,562.38 258.757,562.38ZM267.079,561.3L269.935,570L268.711,570L268.123,568.14L264.799,568.14L264.223,570L262.999,570L265.855,561.3L267.079,561.3ZM266.467,562.824L265.135,567.072L267.787,567.072L266.467,562.824ZM276.673,570L274.969,570L272.185,562.572L272.185,570L271.045,570L271.045,561.3L272.749,561.3L275.533,568.704L275.533,561.3L276.673,561.3L276.673,570ZM278.731,570L278.731,561.3L283.915,561.3L283.915,562.38L279.871,562.38L279.871,564.972L283.675,564.972L283.675,566.052L279.871,566.052L279.871,568.92L283.915,568.92L283.915,570L278.731,570ZM288.085,570L288.085,562.38L285.469,562.38L285.469,561.3L291.841,561.3L291.841,562.38L289.225,562.38L289.225,570L288.085,570Z" style="fill:rgb(36,36,34);fill-rule:nonzero;"/>
</svg>
